<svg width="80" height="80" viewBox="0 0 80 80" fill="none" xmlns="http://www.w3.org/2000/svg">
<rect width="80" height="80" rx="8" fill="#44B58C"/>
<g clip-path="url(#clip0_353_559)">
<path d="M59.2433 38.2168L41.7783 20.7535C40.7717 19.7485 39.1417 19.7485 38.1317 20.7535L34.5133 24.3785L39.1133 28.9785C40.1883 28.6202 41.4117 28.8618 42.2617 29.7135C43.1217 30.5718 43.3583 31.8102 42.9917 32.8802L47.4217 37.3135C48.4967 36.9418 49.7333 37.1835 50.5883 38.0385C51.79 39.2385 51.79 41.1785 50.5883 42.3785C49.39 43.5768 47.4533 43.5768 46.255 42.3785C45.3567 41.4768 45.1317 40.1502 45.5817 39.0518L41.4333 34.9252V45.8002C41.7267 45.9435 42.0033 46.1385 42.2467 46.3802C43.435 47.5818 43.435 49.5185 42.2467 50.7135C41.0483 51.9152 39.0983 51.9152 37.8983 50.7135C36.7 49.5152 36.7 47.5818 37.8983 46.3835C38.2017 46.0835 38.5433 45.8568 38.9067 45.7068V34.7252C38.545 34.5735 38.2 34.3552 37.9067 34.0568C36.9983 33.1485 36.78 31.8202 37.2467 30.7085L32.7267 26.1668L20.75 38.1352C19.75 39.1435 19.75 40.7752 20.75 41.7835L38.2167 59.2452C39.2233 60.2518 40.8533 60.2518 41.86 59.2452L59.2433 41.8618C60.2517 40.8568 60.2517 39.2252 59.2433 38.2168Z" fill="white"/>
</g>
<defs>
<clipPath id="clip0_353_559">
<rect width="40" height="40" fill="white" transform="translate(20 20)"/>
</clipPath>
</defs>
</svg>
