<svg width="80" height="80" viewBox="0 0 80 80" fill="none" xmlns="http://www.w3.org/2000/svg">
<rect width="80" height="80" rx="8" fill="#44B58C"/>
<g clip-path="url(#clip0_164_237)">
<path d="M20 20H60V60H20V20ZM56.7233 50.46C56.4317 48.635 55.2433 47.1017 51.7183 45.6717C50.4917 45.0967 49.1283 44.6967 48.7233 43.7717C48.5717 43.2217 48.5483 42.9217 48.6467 42.5967C48.8967 41.52 50.1717 41.1967 51.1717 41.4967C51.8217 41.6967 52.4217 42.1967 52.7983 42.9967C54.5217 41.87 54.5217 41.87 55.7233 41.1217C55.2733 40.4217 55.05 40.12 54.7467 39.8217C53.6967 38.6467 52.2983 38.0467 50.0233 38.0983L48.8483 38.2467C47.7217 38.5217 46.6483 39.1217 45.9983 39.9217C44.0983 42.0733 44.6467 45.8233 46.9467 47.3733C49.2217 49.0733 52.5483 49.4467 52.9733 51.0483C53.3733 52.9983 51.5233 53.6233 49.6967 53.3983C48.345 53.0983 47.5967 52.4217 46.7717 51.1717L43.7217 52.9233C44.0717 53.7233 44.4717 54.0717 45.0717 54.7717C47.9717 57.6983 55.2217 57.5483 56.5233 53.0983C56.5717 52.9483 56.9233 51.9233 56.6467 50.3483L56.7233 50.46ZM41.7517 38.385H38.005C38.005 41.615 37.99 44.825 37.99 48.06C37.99 50.1133 38.095 51.9983 37.76 52.5783C37.21 53.7267 35.7933 53.58 35.15 53.3783C34.49 53.0517 34.155 52.6017 33.7667 51.9533C33.6617 51.7783 33.5833 51.6267 33.555 51.6267L30.5133 53.5017C31.0217 54.5517 31.7633 55.455 32.72 56.03C34.145 56.88 36.06 57.155 38.065 56.705C39.37 56.3283 40.495 55.5533 41.0833 54.3533C41.9333 52.8033 41.7533 50.9033 41.745 48.7767C41.765 45.3533 41.745 41.9283 41.745 38.4783L41.7517 38.385Z" fill="white"/>
</g>
<defs>
<clipPath id="clip0_164_237">
<rect width="40" height="40" fill="white" transform="translate(20 20)"/>
</clipPath>
</defs>
</svg>
