<svg width="80" height="80" viewBox="0 0 80 80" fill="none" xmlns="http://www.w3.org/2000/svg">
<rect width="80" height="80" rx="8" fill="#44B58C"/>
<g clip-path="url(#clip0_164_237)">
<path d="M59.4034 29.0502C59.4188 29.1044 59.4267 29.1605 59.4267 29.2168V37.7985C59.4267 38.0235 59.305 38.2318 59.1117 38.3418L51.9067 42.4918V50.7152C51.9065 50.8252 51.8774 50.9333 51.8225 51.0286C51.7675 51.1239 51.6885 51.2032 51.5934 51.2585L36.55 59.9152C36.5152 59.9343 36.4783 59.9494 36.44 59.9602C36.4267 59.9635 36.4134 59.9735 36.4 59.9768C36.2955 60.0068 36.1846 60.0068 36.08 59.9768C36.0617 59.9735 36.0467 59.9635 36.03 59.9568C35.9967 59.9435 35.96 59.9335 35.9267 59.9152L20.8884 51.2585C20.7927 51.2036 20.7132 51.1245 20.6579 51.0291C20.6026 50.9337 20.5734 50.8254 20.5734 50.7152V24.9568C20.5734 24.9018 20.5817 24.8468 20.5967 24.7935C20.6017 24.7735 20.6134 24.7602 20.62 24.7402C20.6301 24.7069 20.6429 24.6746 20.6584 24.6435C20.665 24.6218 20.6834 24.6068 20.6967 24.5885L20.7517 24.5135C20.7717 24.4968 20.7934 24.4835 20.8134 24.4685C20.8367 24.4485 20.8584 24.4285 20.8817 24.4118L28.405 20.0835C28.5 20.0286 28.6078 19.9998 28.7175 19.9998C28.8272 19.9998 28.935 20.0286 29.03 20.0835L36.55 24.4118H36.5534C36.5784 24.4285 36.5984 24.4468 36.62 24.4668L36.6834 24.5118C36.705 24.5352 36.7167 24.5618 36.7384 24.5868C36.7517 24.6052 36.7717 24.6218 36.78 24.6418C36.7967 24.6752 36.8084 24.7052 36.82 24.7385C36.825 24.7568 36.8367 24.7735 36.8417 24.7918C36.8584 24.8435 36.865 24.8985 36.865 24.9552V41.0418L43.1317 37.4352V29.2118C43.1317 29.1568 43.1384 29.1018 43.1534 29.0485C43.1584 29.0318 43.17 29.0152 43.175 28.9952C43.1862 28.9615 43.1996 28.9287 43.215 28.8968C43.2267 28.8768 43.245 28.8635 43.2567 28.8418C43.2767 28.8168 43.2917 28.7918 43.3117 28.7702C43.3317 28.7502 43.3534 28.7368 43.3734 28.7235C43.3967 28.7068 43.4167 28.6852 43.4417 28.6702H43.4434L50.965 24.3402C51.06 24.2853 51.1678 24.2564 51.2775 24.2564C51.3872 24.2564 51.495 24.2853 51.59 24.3402L59.1117 28.6702C59.1384 28.6868 59.1567 28.7052 59.1817 28.7218C59.2017 28.7385 59.2234 28.7518 59.2417 28.7685C59.2634 28.7918 59.2784 28.8185 59.2984 28.8418C59.3117 28.8618 59.33 28.8768 59.3384 28.8968C59.3567 28.9302 59.3684 28.9635 59.3784 28.9968C59.3884 29.0135 59.3984 29.0318 59.4034 29.0502ZM58.17 37.4368V30.2985L55.54 31.8118L51.9034 33.9052V41.0435L58.17 37.4368ZM50.6534 50.3535V43.2085L47.075 45.2502L36.865 51.0802V58.2885L50.6534 50.3535ZM21.8217 26.0402V50.3535L35.61 58.2885V51.0802L28.4067 47.0052L28.4034 47.0002H28.4C28.3767 46.9835 28.3584 46.9652 28.3334 46.9485C28.315 46.9318 28.2934 46.9185 28.275 46.9035L28.2734 46.9002C28.2517 46.8802 28.2384 46.8585 28.2217 46.8335C28.205 46.8152 28.1867 46.7968 28.175 46.7735H28.1717C28.1584 46.7502 28.15 46.7218 28.1384 46.6952C28.1284 46.6685 28.115 46.6502 28.1084 46.6235C28.1021 46.5921 28.0976 46.5604 28.095 46.5285C28.0917 46.5052 28.085 46.4835 28.085 46.4602V29.6485L24.4517 27.5535L21.8217 26.0402ZM28.7167 21.3502L22.45 24.9568L28.7167 28.5635L34.98 24.9568L28.7167 21.3502ZM31.9767 43.8585L35.6134 41.7652V26.0402L32.98 27.5568L29.3434 29.6485V45.3735L31.9767 43.8585ZM51.2784 25.6085L45.0117 29.2135L51.2784 32.8185L57.5434 29.2118L51.2784 25.6085ZM50.6517 33.9052L47.0167 31.8118L44.3834 30.3002V37.4385L48.02 39.5318L50.6534 41.0452L50.6517 33.9052ZM36.235 49.9952L45.425 44.7485L50.0184 42.1285L43.7567 38.5235L36.5517 42.6718L29.9834 46.4552L36.235 49.9952Z" fill="white"/>
</g>
<defs>
<clipPath id="clip0_164_237">
<rect width="40" height="40" fill="white" transform="translate(20 20)"/>
</clipPath>
</defs>
</svg>
