<svg width="80" height="80" viewBox="0 0 80 80" fill="none" xmlns="http://www.w3.org/2000/svg">
<rect width="80" height="80" rx="8" fill="#44B58C"/>
<g clip-path="url(#clip0_353_555)">
<path d="M48.6549 35.925C46.5482 26.625 41.5682 23.5683 41.0332 22.4C40.5666 21.7433 40.1499 20.81 39.8082 20C39.7482 20.825 39.7166 21.1417 38.9366 21.9733C37.7316 22.9167 31.5399 28.11 31.0366 38.6733C30.5666 48.5267 38.1532 54.3983 39.1832 55.1467L39.2999 55.23C39.5144 56.8163 39.6978 58.4066 39.8499 60H40.6516C40.8416 58.28 41.1249 56.5733 41.5016 54.8833C42.1966 54.39 42.5082 54.1117 42.9182 53.7283C44.8598 51.9322 46.4029 49.7485 47.4476 47.3186C48.4923 44.8886 49.0155 42.2665 48.9832 39.6217C48.9999 38.265 48.8116 36.8517 48.6549 35.925ZM39.7616 49.5833C39.7616 49.5833 39.7616 35.765 40.2199 35.7667C40.5749 35.7667 41.0366 53.5917 41.0366 53.5917C40.4016 53.5167 39.7616 50.6583 39.7616 49.5833Z" fill="white"/>
</g>
<defs>
<clipPath id="clip0_353_555">
<rect width="40" height="40" fill="white" transform="translate(20 20)"/>
</clipPath>
</defs>
</svg>
