<svg width="80" height="80" viewBox="0 0 80 80" fill="none" xmlns="http://www.w3.org/2000/svg">
<rect width="80" height="80" rx="8" fill="#44B58C"/>
<path d="M48.81 27.002C48.58 27.002 48.424 27.03 48.262 27.068V27.094H48.29C48.398 27.302 48.582 27.454 48.718 27.64C48.826 27.854 48.918 28.068 49.026 28.28L49.054 28.25C49.242 28.118 49.334 27.906 49.334 27.584C49.254 27.49 49.242 27.396 49.174 27.304C49.094 27.17 48.922 27.104 48.814 26.998L48.81 27.002ZM27.54 53.39H25.686C25.6339 50.4436 25.4537 47.5008 25.146 44.57H25.13L22.31 53.39H20.9L18.1 44.57H18.08C17.861 47.5054 17.7309 50.4467 17.69 53.39H16C16.11 49.458 16.384 45.77 16.82 42.33H19.12L21.79 50.458H21.806L24.5 42.33H26.69C27.174 46.36 27.458 50.05 27.546 53.39H27.54ZM35.574 45.23C34.818 49.32 33.822 52.296 32.59 54.15C31.626 55.582 30.57 56.296 29.424 56.296C29.118 56.296 28.744 56.204 28.292 56.02V55.032C28.512 55.066 28.772 55.084 29.064 55.084C29.6 55.084 30.03 54.934 30.358 54.64C30.752 54.28 30.948 53.876 30.948 53.43C30.948 53.12 30.794 52.49 30.488 51.542L28.46 45.23H30.28L31.734 49.95C32.062 51.022 32.2 51.77 32.144 52.196C32.944 50.068 33.5 47.742 33.814 45.23H35.574ZM60.224 53.39H54.964V42.33H56.734V52.03H60.224V53.39ZM53.584 53.66L51.552 52.66C51.732 52.508 51.906 52.344 52.062 52.16C52.928 51.148 53.358 49.644 53.358 47.654C53.358 43.994 51.922 42.162 49.048 42.162C47.64 42.162 46.54 42.626 45.748 43.556C44.888 44.572 44.456 46.068 44.456 48.046C44.456 49.99 44.836 51.418 45.604 52.326C46.304 53.146 47.358 53.556 48.77 53.556C49.298 53.556 49.782 53.49 50.22 53.36L52.87 54.904L53.59 53.66H53.584ZM47 51.176C46.55 50.456 46.326 49.296 46.326 47.704C46.326 44.918 47.174 43.524 48.866 43.524C49.752 43.524 50.406 43.858 50.82 44.524C51.268 45.248 51.492 46.396 51.492 47.97C51.492 50.778 50.644 52.186 48.952 52.186C48.062 52.186 47.412 51.852 46.996 51.186L47 51.176ZM43.684 50.326C43.684 51.266 43.34 52.038 42.652 52.638C41.964 53.238 41.046 53.538 39.884 53.538C38.798 53.538 37.756 53.194 36.738 52.508L37.212 51.556C38.088 51.996 38.878 52.212 39.592 52.212C40.256 52.212 40.778 52.066 41.158 51.772C41.3479 51.6288 41.5013 51.4428 41.6056 51.229C41.7098 51.0152 41.7621 50.7798 41.758 50.542C41.758 49.882 41.298 49.322 40.462 48.852C39.686 48.426 38.136 47.538 38.136 47.538C37.292 46.924 36.872 46.266 36.872 45.184C36.872 44.284 37.186 43.564 37.812 43.014C38.442 42.458 39.252 42.184 40.252 42.184C41.276 42.184 42.212 42.456 43.052 43.004L42.626 43.956C41.9548 43.6612 41.231 43.5047 40.498 43.496C39.932 43.496 39.494 43.632 39.19 43.908C39.0357 44.0358 38.9114 44.1959 38.8257 44.377C38.74 44.558 38.695 44.7557 38.694 44.956C38.694 45.612 39.162 46.176 40.026 46.656C40.812 47.086 42.4 47.996 42.4 47.996C43.266 48.606 43.696 49.256 43.696 50.332L43.684 50.326ZM62.448 38.622C61.378 38.594 60.548 38.702 59.854 38.998C59.654 39.078 59.334 39.078 59.306 39.332C59.416 39.438 59.432 39.612 59.526 39.76C59.686 40.028 59.962 40.386 60.218 40.574C60.498 40.794 60.778 41.006 61.072 41.194C61.592 41.514 62.182 41.704 62.692 42.026C62.982 42.214 63.278 42.452 63.572 42.652C63.718 42.752 63.812 42.932 64 42.996V42.956C63.908 42.836 63.88 42.662 63.79 42.528C63.656 42.394 63.522 42.274 63.39 42.142C62.9973 41.6245 62.5287 41.1694 62 40.792C61.572 40.5 60.636 40.092 60.46 39.602L60.434 39.574C60.726 39.548 61.074 39.442 61.354 39.362C61.808 39.242 62.224 39.268 62.694 39.15C62.906 39.096 63.12 39.03 63.334 38.962V38.842C63.094 38.602 62.914 38.276 62.666 38.052C61.9738 37.4469 61.2356 36.8966 60.458 36.406C60.038 36.138 59.506 35.966 59.064 35.738C58.904 35.658 58.636 35.618 58.544 35.484C58.304 35.192 58.164 34.804 57.994 34.456C57.6013 33.6942 57.2364 32.9183 56.9 32.13C56.66 31.606 56.514 31.084 56.22 30.604C54.84 28.33 53.346 26.952 51.048 25.604C50.554 25.324 49.962 25.204 49.336 25.056C49.002 25.04 48.668 25.016 48.336 25.002C48.116 24.908 47.904 24.654 47.716 24.532C46.956 24.052 44.988 23.012 44.428 24.388C44.068 25.256 44.962 26.112 45.272 26.552C45.502 26.858 45.792 27.208 45.952 27.552C46.046 27.784 46.072 28.022 46.166 28.264C46.378 28.852 46.58 29.508 46.86 30.058C47.006 30.338 47.166 30.632 47.354 30.884C47.462 31.03 47.646 31.098 47.688 31.338C47.5 31.61 47.488 32.006 47.38 32.338C46.9 33.852 47.088 35.724 47.768 36.838C47.982 37.17 48.492 37.906 49.174 37.624C49.774 37.384 49.642 36.624 49.814 35.954C49.854 35.794 49.828 35.688 49.91 35.58V35.61C50.098 35.986 50.286 36.344 50.458 36.72C50.87 37.376 51.59 38.056 52.192 38.51C52.512 38.75 52.766 39.166 53.166 39.314V39.274H53.136C53.05 39.158 52.936 39.102 52.828 39.008C52.5744 38.7598 52.3404 38.4923 52.128 38.208C51.5645 37.438 51.0648 36.6233 50.634 35.772C50.414 35.352 50.23 34.9 50.054 34.486C49.974 34.326 49.974 34.086 49.84 34.006C49.64 34.298 49.346 34.552 49.2 34.912C48.946 35.488 48.92 36.196 48.824 36.932C48.77 36.946 48.796 36.932 48.77 36.96C48.342 36.856 48.196 36.412 48.036 36.04C47.636 35.09 47.57 33.564 47.916 32.47C48.01 32.19 48.41 31.306 48.25 31.038C48.166 30.784 47.902 30.638 47.756 30.432C47.5682 30.1639 47.4074 29.8778 47.276 29.578C46.956 28.83 46.796 28.002 46.448 27.254C46.288 26.908 46.008 26.546 45.78 26.228C45.526 25.868 45.246 25.614 45.044 25.188C44.978 25.042 44.884 24.8 44.99 24.64C45.018 24.532 45.074 24.49 45.178 24.46C45.354 24.316 45.848 24.504 46.022 24.584C46.516 24.784 46.932 24.972 47.346 25.252C47.534 25.384 47.736 25.638 47.976 25.704H48.256C48.684 25.798 49.166 25.732 49.566 25.85C50.276 26.078 50.916 26.41 51.49 26.77C53.2587 27.8998 54.6973 29.4771 55.66 31.342C55.82 31.65 55.89 31.932 56.036 32.252C56.316 32.912 56.662 33.578 56.946 34.216C57.226 34.846 57.496 35.488 57.898 36.01C58.098 36.29 58.902 36.436 59.262 36.582C59.528 36.702 59.942 36.812 60.182 36.958C60.642 37.238 61.09 37.558 61.522 37.866C61.742 38.018 62.408 38.352 62.448 38.622Z" fill="white"/>
</svg>
