<svg width="80" height="80" viewBox="0 0 80 80" fill="none" xmlns="http://www.w3.org/2000/svg">
<rect width="80" height="80" rx="8" fill="#44B58C"/>
<g clip-path="url(#clip0_353_551)">
<path d="M39.9968 60C39.4618 60 38.9284 59.86 38.4601 59.5884L33.5668 56.6934C32.8368 56.2851 33.1934 56.14 33.4334 56.055C34.4084 55.7167 34.6051 55.6384 35.6468 55.0484C35.7551 54.9867 35.8984 55.01 36.0101 55.0767L39.7701 57.3084C39.9068 57.3834 40.0984 57.3834 40.2234 57.3084L54.8818 48.8484C55.0184 48.77 55.1051 48.6134 55.1051 48.4517V31.535C55.1051 31.37 55.0168 31.215 54.8768 31.1317L40.2251 22.6784C40.0901 22.6001 39.9101 22.6001 39.7734 22.6784L25.1251 31.1334C24.9834 31.215 24.8934 31.375 24.8934 31.535V48.4517C24.8934 48.6134 24.9834 48.7667 25.1251 48.8434L29.1401 51.1634C31.3184 52.2534 32.6534 50.9701 32.6534 49.6801V32.9784C32.6534 32.7417 32.8434 32.5567 33.0801 32.5567H34.9384C35.1701 32.5567 35.3634 32.7434 35.3634 32.9784V49.6801C35.3634 52.5884 33.7801 54.255 31.0234 54.255C30.1768 54.255 29.5084 54.2551 27.6468 53.3367L23.8001 51.125C22.8501 50.5767 22.2634 49.55 22.2634 48.4517V31.535C22.2634 30.4367 22.8518 29.41 23.8001 28.8634L38.4584 20.3934C39.3868 19.8684 40.6184 19.8684 41.5384 20.3934L56.1951 28.8634C57.1451 29.4117 57.7351 30.4367 57.7351 31.535V48.4517C57.7351 49.55 57.1451 50.5734 56.1951 51.125L41.5384 59.5884C41.0718 59.86 40.5401 60 39.9968 60ZM51.8318 43.3217C51.8318 40.155 49.6918 39.3117 45.1868 38.7167C40.6351 38.115 40.1718 37.8034 40.1718 36.7384C40.1718 35.8584 40.5634 34.6834 43.9351 34.6834C46.9468 34.6834 48.0568 35.3317 48.5134 37.3617C48.5534 37.5534 48.7284 37.6934 48.9251 37.6934H50.8268C50.9451 37.6934 51.0568 37.6417 51.1368 37.5584C51.2168 37.4684 51.2601 37.3534 51.2484 37.2317C50.9534 33.735 48.6301 32.105 43.9351 32.105C39.7551 32.105 37.2618 33.8684 37.2618 36.8267C37.2618 40.035 39.7418 40.9217 43.7534 41.3184C48.5534 41.7884 48.9251 42.4901 48.9251 43.4334C48.9251 45.0717 47.6101 45.77 44.5218 45.77C40.6434 45.77 39.7901 44.7967 39.5034 42.8667C39.4701 42.6601 39.2934 42.5084 39.0818 42.5084H37.1868C36.9518 42.5084 36.7634 42.6951 36.7634 42.9301C36.7634 45.4001 38.1068 48.3434 44.5218 48.3434C49.1684 48.3451 51.8318 46.5167 51.8318 43.3217Z" fill="white"/>
</g>
<defs>
<clipPath id="clip0_353_551">
<rect width="40" height="40" fill="white" transform="translate(20 20)"/>
</clipPath>
</defs>
</svg>
