<svg width="80" height="80" viewBox="0 0 80 80" fill="none" xmlns="http://www.w3.org/2000/svg">
<rect width="80" height="80" rx="8" fill="#44B58C"/>
<g clip-path="url(#clip0_164_237)">
<path d="M35.1301 26.6083C34.1501 26.6083 33.1685 27.09 32.6068 28.0533L20.3935 49.055C19.2735 50.9817 20.6768 53.39 22.9168 53.39H32.4501C31.9556 52.963 31.6264 52.3761 31.5198 51.7314C31.4132 51.0868 31.536 50.4252 31.8668 49.8617L41.1118 34.0067L37.6518 28.0533C37.3965 27.6112 37.0287 27.2446 36.5858 26.9908C36.1429 26.737 35.6406 26.605 35.1301 26.6083ZM47.4751 31.4783C46.6635 31.4783 45.8535 31.8717 45.3885 32.66L35.2835 49.8433C34.3551 51.4183 35.5135 53.3933 37.3685 53.3933H57.5851C59.4418 53.3933 60.6018 51.4183 59.6735 49.8433L49.5618 32.66C49.3487 32.2967 49.0436 31.996 48.6773 31.7883C48.3109 31.5805 47.8963 31.4747 47.4751 31.4783Z" fill="white"/>
</g>
<defs>
<clipPath id="clip0_164_237">
<rect width="40" height="40" fill="white" transform="translate(20 20)"/>
</clipPath>
</defs>
</svg>
