<svg width="80" height="80" viewBox="0 0 80 80" fill="none" xmlns="http://www.w3.org/2000/svg">
<rect width="80" height="80" rx="8" fill="#44B58C"/>
<path d="M30.02 36.414H28.132L27.102 41.71H28.778C29.89 41.71 30.718 41.5 31.262 41.082C31.806 40.662 32.172 39.964 32.362 38.984C32.546 38.044 32.462 37.38 32.114 36.994C31.764 36.608 31.068 36.414 30.02 36.414ZM40 27.376C26.746 27.376 16 33.028 16 40C16 46.972 26.746 52.626 40 52.626C53.254 52.626 64 46.972 64 40C64 33.028 53.254 27.376 40 27.376ZM33.48 42.278C32.958 42.778 32.33 43.154 31.646 43.38C30.974 43.596 30.116 43.708 29.076 43.708H26.714L26.06 47.07H23.304L25.764 34.418H31.064C32.658 34.418 33.82 34.836 34.552 35.674C35.284 36.51 35.504 37.678 35.212 39.178C35.1002 39.7715 34.8942 40.3434 34.602 40.872C34.316 41.382 33.942 41.852 33.48 42.278ZM41.528 43.708L42.614 38.11C42.74 37.474 42.692 37.038 42.478 36.808C42.264 36.576 41.806 36.46 41.104 36.46H38.92L37.512 43.71H34.776L37.236 31.056H39.97L39.316 34.42H41.752C43.286 34.42 44.342 34.688 44.924 35.222C45.506 35.756 45.68 36.622 45.45 37.82L44.306 43.708H41.528ZM56.722 39.178C56.612 39.772 56.406 40.3442 56.112 40.872C55.826 41.382 55.452 41.852 54.99 42.278C54.4677 42.7765 53.8413 43.1528 53.156 43.38C52.484 43.596 51.626 43.708 50.584 43.708H48.224L47.57 47.072H44.814L47.274 34.42H52.572C54.166 34.42 55.328 34.838 56.06 35.676C56.792 36.51 57.014 37.678 56.722 39.178ZM51.532 36.414H49.646L48.614 41.71H50.29C51.404 41.71 52.232 41.5 52.774 41.082C53.318 40.662 53.684 39.964 53.876 38.984C54.06 38.044 53.974 37.38 53.626 36.994C53.278 36.608 52.578 36.414 51.532 36.414Z" fill="white"/>
</svg>