<svg width="40" height="40" viewBox="0 0 40 40" fill="none" xmlns="http://www.w3.org/2000/svg">
<path d="M20.0001 1.66671C15.1892 1.61782 10.5558 3.48106 7.11803 6.84692C3.68029 10.2128 1.71958 14.8059 1.66681 19.6167C1.68535 23.4187 2.90838 27.1169 5.16025 30.1803C7.41211 33.2437 10.5769 35.5145 14.2001 36.6667C15.1168 36.8334 15.4501 36.2834 15.4501 35.8C15.4501 35.3167 15.4501 34.25 15.4501 32.75C10.3501 33.8334 9.26681 30.35 9.26681 30.35C8.9273 29.2565 8.20553 28.3218 7.23348 27.7167C5.56681 26.6167 7.36681 26.6334 7.36681 26.6334C7.9429 26.7104 8.49407 26.9168 8.97899 27.2372C9.46392 27.5576 9.87001 27.9837 10.1668 28.4834C10.684 29.3802 11.5327 30.0382 12.5302 30.3156C13.5276 30.593 14.5941 30.4677 15.5001 29.9667C15.5933 29.054 16.0066 28.2038 16.6668 27.5667C12.6001 27.1167 8.33348 25.5834 8.33348 18.7C8.29711 16.9045 8.96055 15.1652 10.1835 13.85C9.62652 12.3085 9.69229 10.6106 10.3668 9.11671C10.3668 9.11671 11.9168 8.63338 15.3668 10.95C18.37 10.1498 21.5303 10.1498 24.5335 10.95C28.0335 8.63338 29.5335 9.11671 29.5335 9.11671C30.208 10.6106 30.2738 12.3085 29.7168 13.85C30.9681 15.1411 31.6676 16.8687 31.6668 18.6667C31.6668 25.5667 27.3668 27.0834 23.3335 27.5334C23.7751 27.9622 24.1163 28.4835 24.3324 29.0598C24.5485 29.6362 24.6343 30.2533 24.5835 30.8667V35.7834C24.5835 35.7834 24.9168 36.8334 25.8335 36.65C29.4464 35.4907 32.6006 33.2193 34.8455 30.1603C37.0904 27.1012 38.3112 23.411 38.3335 19.6167C38.2807 14.8059 36.32 10.2128 32.8823 6.84692C29.4445 3.48106 24.811 1.61782 20.0001 1.66671Z" fill="white"/>
</svg>
