<svg width="41" height="41" viewBox="0 0 41 41" fill="none" xmlns="http://www.w3.org/2000/svg">
<rect width="41" height="41" rx="8" fill="#44B58C"/>
<path fill-rule="evenodd" clip-rule="evenodd" d="M20.5 11C25.7382 11 30 15.2618 30 20.5C30 25.7382 25.7382 30 20.5 30C15.2618 30 11 25.7382 11 20.5C11 15.2618 15.2618 11 20.5 11ZM20.5 12.3753C16.02 12.3753 12.3753 16.0209 12.3753 20.5C12.3753 24.98 16.02 28.6247 20.5 28.6247C24.98 28.6247 28.6247 24.98 28.6247 20.5C28.6247 16.0209 24.98 12.3753 20.5 12.3753ZM24.0499 16.9506C24.2305 17.1321 24.2965 17.399 24.2195 17.6419L22.7598 22.308C22.6929 22.5235 22.5232 22.6922 22.3087 22.7591L17.6426 24.2198C17.5747 24.2409 17.505 24.2509 17.4372 24.2509C17.2575 24.2509 17.0814 24.1803 16.9503 24.0501C16.7697 23.8686 16.7037 23.6018 16.7807 23.3588L18.2413 18.6927C18.3082 18.4763 18.477 18.3085 18.6915 18.2416L23.3576 16.781C23.6024 16.703 23.8683 16.77 24.0499 16.9506ZM22.515 18.4855L19.4461 19.4464L18.4861 22.5153L21.5541 21.5543L22.515 18.4855Z" fill="#F9F9F8"/>
</svg>
