<svg width="41" height="41" viewBox="0 0 41 41" fill="none" xmlns="http://www.w3.org/2000/svg">
<rect width="41" height="41" rx="8" fill="#44B58C"/>
<path fill-rule="evenodd" clip-rule="evenodd" d="M21.0005 23.1644L21.1146 23.1645L21.3698 23.1654C23.3206 23.179 27.7787 23.3881 27.7787 26.5939C27.7787 29.7787 23.476 29.9865 21.4002 30L20.6312 30C18.6803 29.9864 14.2213 29.7776 14.2213 26.5757C14.2213 23.3869 18.6803 23.1789 20.6312 23.1654L20.8864 23.1645C20.926 23.1644 20.9641 23.1644 21.0005 23.1644ZM21.0005 24.7725C18.5996 24.7725 15.737 25.0856 15.737 26.5757C15.737 28.0322 18.4288 28.3727 20.7811 28.392L21.0005 28.3929C23.4014 28.3929 26.263 28.0809 26.263 26.5939C26.263 25.0888 23.4014 24.7725 21.0005 24.7725ZM29.0373 22.7294C31.4857 23.1185 32 24.3385 32 25.2937C32 25.8769 31.7838 26.9415 30.3388 27.5258C30.2499 27.5612 30.1589 27.5783 30.069 27.5783C29.7638 27.5783 29.4759 27.381 29.3607 27.0605C29.2111 26.6456 29.4082 26.1803 29.7992 26.0227C30.4843 25.7462 30.4843 25.4406 30.4843 25.2937C30.4843 24.8242 29.9215 24.4961 28.812 24.3203C28.3987 24.2538 28.1127 23.8454 28.1744 23.4048C28.236 22.9652 28.62 22.6726 29.0373 22.7294ZM13.8256 23.4048C13.8873 23.8454 13.6013 24.2538 13.188 24.3203C12.0785 24.4961 11.5157 24.8242 11.5157 25.2937C11.5157 25.4406 11.5157 25.7451 12.2018 26.0227C12.5928 26.1803 12.7899 26.6456 12.6403 27.0605C12.5251 27.381 12.2372 27.5783 11.932 27.5783C11.8421 27.5783 11.7511 27.5612 11.6622 27.5258C10.2162 26.9404 10 25.8759 10 25.2937C10 24.3396 10.5143 23.1185 12.9637 22.7294C13.381 22.6736 13.763 22.9652 13.8256 23.4048ZM21.0005 12C23.5469 12 25.6173 14.1977 25.6173 16.8982C25.6173 19.5988 23.5469 21.7965 21.0005 21.7965H20.9732C19.7405 21.7922 18.5855 21.2797 17.7205 20.3535C16.8536 19.4283 16.3797 18.1997 16.3847 16.895C16.3847 14.1977 18.4551 12 21.0005 12ZM21.0005 13.6081C19.2908 13.6081 17.9004 15.0843 17.9004 16.8982C17.8974 17.7773 18.2147 18.5996 18.7957 19.2203C19.3767 19.841 20.1507 20.1852 20.9752 20.1884L21.0005 20.9924V20.1884C22.7102 20.1884 24.1016 18.7132 24.1016 16.8982C24.1016 15.0843 22.7102 13.6081 21.0005 13.6081ZM27.2543 13.0501C29.0307 13.3599 30.321 14.9723 30.321 16.8838C30.317 18.8081 28.9619 20.4591 27.1684 20.726C27.133 20.7314 27.0976 20.7335 27.0633 20.7335C26.6914 20.7335 26.3671 20.443 26.3135 20.041C26.2559 19.6004 26.5439 19.1941 26.9592 19.1329C28.0101 18.9764 28.8033 18.0094 28.8053 16.8816C28.8053 15.7635 28.0495 14.8179 27.0077 14.6367C26.5954 14.5649 26.3155 14.1511 26.3832 13.7126C26.452 13.2741 26.839 12.9804 27.2543 13.0501ZM15.6178 13.7126C15.6855 14.1511 15.4056 14.5649 14.9933 14.6367C13.9515 14.8179 13.1957 15.7635 13.1957 16.8838C13.1977 18.0094 13.9909 18.9775 15.0408 19.1329C15.4561 19.1941 15.7441 19.6004 15.6865 20.041C15.6329 20.443 15.3086 20.7335 14.9367 20.7335C14.9024 20.7335 14.867 20.7314 14.8316 20.726C13.0381 20.4591 11.684 18.8081 11.68 16.8859C11.68 14.9723 12.9704 13.3599 14.7467 13.0501C15.1722 12.9793 15.5491 13.2763 15.6178 13.7126Z" fill="#F9F9F8"/>
</svg>
