<svg width="41" height="40" viewBox="0 0 41 40" fill="none" xmlns="http://www.w3.org/2000/svg">
<path d="M26.2125 13.9998C24.9351 13.9954 23.6694 14.243 22.4877 14.7283C21.3061 15.2136 20.2317 15.9271 19.3261 16.8281C18.4206 17.729 17.7015 18.7997 17.2101 19.9788C16.7188 21.1579 16.4647 22.4224 16.4625 23.6998V33.4998C16.4625 33.8976 16.6206 34.2792 16.9019 34.5605C17.1832 34.8418 17.5647 34.9998 17.9625 34.9998H21.4625C21.8604 34.9998 22.2419 34.8418 22.5232 34.5605C22.8045 34.2792 22.9625 33.8976 22.9625 33.4998V23.6998C22.9622 23.2455 23.0576 22.7962 23.2426 22.3812C23.4275 21.9662 23.6979 21.5949 24.036 21.2914C24.3741 20.9879 24.7723 20.759 25.2048 20.6198C25.6372 20.4805 26.0942 20.434 26.5459 20.4831C27.3559 20.5852 28.1003 20.9809 28.6379 21.5953C29.1755 22.2097 29.4689 23.0001 29.4625 23.8165V33.4998C29.4625 33.8976 29.6206 34.2792 29.9019 34.5605C30.1832 34.8418 30.5647 34.9998 30.9625 34.9998H34.4625C34.8604 34.9998 35.2419 34.8418 35.5232 34.5605C35.8045 34.2792 35.9625 33.8976 35.9625 33.4998V23.6998C35.9603 22.4224 35.7063 21.1579 35.2149 19.9788C34.7236 18.7997 34.0045 17.729 33.0989 16.8281C32.1933 15.9271 31.119 15.2136 29.9373 14.7283C28.7557 14.243 27.4899 13.9954 26.2125 13.9998Z" fill="white"/>
<path d="M11.963 15.5002H7.46301C6.63459 15.5002 5.96301 16.1718 5.96301 17.0002V33.5002C5.96301 34.3287 6.63459 35.0002 7.46301 35.0002H11.963C12.7914 35.0002 13.463 34.3287 13.463 33.5002V17.0002C13.463 16.1718 12.7914 15.5002 11.963 15.5002Z" fill="white"/>
<path d="M9.71289 12.5C11.784 12.5 13.4629 10.8211 13.4629 8.75C13.4629 6.67893 11.784 5 9.71289 5C7.64182 5 5.96289 6.67893 5.96289 8.75C5.96289 10.8211 7.64182 12.5 9.71289 12.5Z" fill="white"/>
</svg>
