<svg width="66" height="19" viewBox="0 0 66 19" fill="none" xmlns="http://www.w3.org/2000/svg">
<path d="M11.2352 0.691999V3.188H10.3232C9.90716 3.188 9.57116 3.244 9.31516 3.356C9.07516 3.468 8.89116 3.684 8.76316 4.004C8.65116 4.308 8.59516 4.748 8.59516 5.324V7.076L7.80315 5.444C7.91515 5.348 8.08316 5.268 8.30716 5.204C8.53116 5.124 8.77916 5.084 9.05116 5.084C9.65916 5.084 10.1632 5.268 10.5632 5.636C10.9792 6.004 11.1872 6.524 11.1872 7.196C11.1872 7.82 10.9872 8.356 10.5872 8.804C10.2032 9.252 9.62716 9.476 8.85916 9.476C8.36316 9.476 7.90716 9.364 7.49116 9.14C7.09116 8.9 6.76316 8.516 6.50716 7.988C6.26716 7.444 6.14716 6.716 6.14716 5.804V5.492C6.14716 4.372 6.31516 3.46 6.65116 2.756C6.98716 2.052 7.48316 1.532 8.13916 1.196C8.79516 0.859999 9.61116 0.691999 10.5872 0.691999H11.2352ZM5.28316 0.691999V3.188H4.37116C3.95516 3.188 3.61915 3.244 3.36315 3.356C3.12315 3.468 2.93915 3.684 2.81116 4.004C2.69915 4.308 2.64315 4.748 2.64315 5.324V7.076L1.85116 5.444C1.96316 5.348 2.13116 5.268 2.35515 5.204C2.57915 5.124 2.82715 5.084 3.09916 5.084C3.70716 5.084 4.21116 5.268 4.61116 5.636C5.02716 6.004 5.23516 6.524 5.23516 7.196C5.23516 7.82 5.03516 8.356 4.63515 8.804C4.25116 9.252 3.67516 9.476 2.90716 9.476C2.41115 9.476 1.95515 9.364 1.53915 9.14C1.13915 8.9 0.811155 8.516 0.555155 7.988C0.315155 7.444 0.195155 6.716 0.195155 5.804V5.492C0.195155 4.372 0.363155 3.46 0.699155 2.756C1.03515 2.052 1.53115 1.532 2.18716 1.196C2.84316 0.859999 3.65916 0.691999 4.63515 0.691999H5.28316Z" fill="#44B58C"/>
<path d="M11.58 18.5L17.196 0.98H24.348L30.156 18.5H25.548L21.036 4.1L22.308 4.58H19.14L20.436 4.1L16.044 18.5H11.58ZM16.164 14.444L17.508 10.796H24.156L25.5 14.444H16.164ZM31.2174 18.5V0.98H35.5854V18.5H31.2174ZM29.7294 4.148V0.98H35.5854V4.148H29.7294ZM44.3027 18.98C43.1827 18.98 42.1907 18.788 41.3267 18.404C40.4627 18.02 39.7347 17.5 39.1427 16.844C38.5507 16.188 38.0947 15.452 37.7747 14.636C37.4707 13.82 37.3187 12.98 37.3187 12.116V11.636C37.3187 10.74 37.4707 9.884 37.7747 9.068C38.0947 8.236 38.5427 7.5 39.1187 6.86C39.7107 6.22 40.4307 5.716 41.2787 5.348C42.1267 4.964 43.0867 4.772 44.1587 4.772C45.5827 4.772 46.7907 5.092 47.7827 5.732C48.7747 6.372 49.5347 7.22 50.0627 8.276C50.5907 9.316 50.8547 10.452 50.8547 11.684V13.076H39.1427V10.724H48.3347L46.8227 11.78C46.8227 11.028 46.7187 10.396 46.5107 9.884C46.3187 9.356 46.0227 8.956 45.6227 8.684C45.2387 8.412 44.7507 8.276 44.1587 8.276C43.5827 8.276 43.0787 8.412 42.6467 8.684C42.2307 8.94 41.9107 9.34 41.6867 9.884C41.4627 10.412 41.3507 11.084 41.3507 11.9C41.3507 12.636 41.4547 13.276 41.6627 13.82C41.8707 14.348 42.1907 14.756 42.6227 15.044C43.0547 15.332 43.6147 15.476 44.3027 15.476C44.9107 15.476 45.4067 15.372 45.7907 15.164C46.1907 14.956 46.4707 14.676 46.6307 14.324H50.6147C50.4227 15.22 50.0387 16.02 49.4627 16.724C48.9027 17.428 48.1827 17.98 47.3027 18.38C46.4387 18.78 45.4387 18.98 44.3027 18.98ZM50.9267 18.5L54.8387 11.348L54.7427 11.972L51.0467 5.252H55.7507L57.8867 9.596H58.2707L60.2867 5.252H64.7027L61.1747 12.092L61.2707 11.564L65.4227 18.5H60.7187L58.1267 13.868H57.7427L55.3427 18.5H50.9267Z" fill="#F9F9F8"/>
</svg>
