<svg width="40" height="40" viewBox="0 0 40 40" fill="none" xmlns="http://www.w3.org/2000/svg">
<path d="M13.4664 33.3336C15.9309 33.416 18.3869 33.0036 20.6893 32.1207C22.9917 31.2378 25.0938 29.9024 26.8713 28.1933C28.6487 26.4841 30.0656 24.4361 31.0381 22.17C32.0105 19.904 32.5189 17.4661 32.5331 15.0002C33.6625 13.6026 34.5012 11.9933 34.9998 10.2669C35.037 10.1305 35.034 9.98626 34.9911 9.85153C34.9483 9.7168 34.8674 9.59733 34.7582 9.50751C34.649 9.41769 34.5161 9.36136 34.3757 9.34528C34.2352 9.32921 34.0931 9.35408 33.9664 9.4169C33.3756 9.70133 32.7104 9.7932 32.0645 9.67958C31.4187 9.56596 30.8247 9.25257 30.3664 8.78357C29.7813 8.14287 29.0736 7.62612 28.2852 7.26395C27.4967 6.90178 26.6436 6.70155 25.7764 6.67513C24.9091 6.6487 24.0454 6.79663 23.2363 7.11013C22.4273 7.42363 21.6894 7.89634 21.0664 8.50024C20.2134 9.32633 19.5886 10.3591 19.2528 11.498C18.9169 12.637 18.8814 13.8435 19.1498 15.0002C13.5664 15.3336 9.7331 12.6836 6.66643 9.05024C6.5743 8.9459 6.45379 8.87066 6.3196 8.83369C6.18542 8.79671 6.04337 8.79961 5.91081 8.84203C5.77824 8.88445 5.6609 8.96456 5.57311 9.07256C5.48532 9.18057 5.43087 9.3118 5.41643 9.45024C4.83221 12.6909 5.25365 16.0328 6.62413 19.027C7.99461 22.0212 10.2485 24.5244 13.0831 26.2002C11.1825 28.3799 8.51345 29.7413 5.6331 30.0002C5.47878 30.0258 5.33633 30.099 5.22568 30.2096C5.11503 30.3201 5.04172 30.4625 5.016 30.6168C4.99029 30.7711 5.01346 30.9296 5.08227 31.0701C5.15108 31.2105 5.26209 31.326 5.39976 31.4002C7.90563 32.6525 10.6651 33.3139 13.4664 33.3336Z" fill="white"/>
</svg>
